<?xml version="1.0" encoding="UTF-8" standalone="no"?>
<!-- Created with Inkscape (http://www.inkscape.org/) -->

<svg
   xmlns:dc="http://purl.org/dc/elements/1.1/"
   xmlns:cc="http://creativecommons.org/ns#"
   xmlns:rdf="http://www.w3.org/1999/02/22-rdf-syntax-ns#"
   xmlns:svg="http://www.w3.org/2000/svg"
   xmlns="http://www.w3.org/2000/svg"
   xmlns:sodipodi="http://sodipodi.sourceforge.net/DTD/sodipodi-0.dtd"
   xmlns:inkscape="http://www.inkscape.org/namespaces/inkscape"
   width="1052.36"
   height="500"
   id="svg2"
   version="1.1"
   inkscape:version="0.48.4 r9939"
   sodipodi:docname="CoAct.svg"
   inkscape:export-filename="/media/dasaule/DATA/@Real Doc/Travail/CoAct/Logo/CoAct.png"
   inkscape:export-xdpi="68.459045"
   inkscape:export-ydpi="68.459045">
  <defs
     id="defs4" />
  <sodipodi:namedview
     id="base"
     pagecolor="#ffffff"
     bordercolor="#666666"
     borderopacity="1.0"
     inkscape:pageopacity="0.0"
     inkscape:pageshadow="2"
     inkscape:zoom="0.70710678"
     inkscape:cx="557.66934"
     inkscape:cy="464.02954"
     inkscape:document-units="px"
     inkscape:current-layer="layer1"
     showgrid="false"
     inkscape:window-width="1855"
     inkscape:window-height="1056"
     inkscape:window-x="65"
     inkscape:window-y="24"
     inkscape:window-maximized="1" />
  <metadata
     id="metadata7">
    <rdf:RDF>
      <cc:Work
         rdf:about="">
        <dc:format>image/svg+xml</dc:format>
        <dc:type
           rdf:resource="http://purl.org/dc/dcmitype/StillImage" />
        <dc:title />
      </cc:Work>
    </rdf:RDF>
  </metadata>
  <g
     inkscape:label="Calque 1"
     inkscape:groupmode="layer"
     id="layer1"
     transform="translate(0,-552.3619)">
    <path
       style="fill:#000000;fill-opacity:1;stroke:#00c300;stroke-width:0;stroke-linecap:butt;stroke-linejoin:miter;stroke-miterlimit:4;stroke-opacity:1;stroke-dasharray:none"
       d="m 724.40749,767.06731 c -2.31642,0.0375 -54.76082,148.20811 -53.22614,148.51423 12.93157,2.57944 42.67154,1.19212 43.35933,-1.1608 0.82738,-2.83041 1.8237,-14.59578 6.17956,-19.11907 9.6772,-0.11791 34.63551,-1.28282 45.9882,0 4.21939,5.87334 2.90742,16.73683 8.67186,21.06512 3.82055,0.12402 38.98537,2.23973 43.53003,-1.29737 1.03251,-5.53555 -52.54116,-146.63024 -56.81096,-147.31928 -3.27969,-0.82561 -12.07532,0.78289 -18.12897,0.78229 -9.06881,-9.1e-4 -17.2465,-1.50262 -19.56291,-1.46512 z m 20.07502,51.55322 c 4.27651,8.80354 11.13352,30.59859 11.57387,40.18419 -7.42995,1.06651 -20.0629,1.78682 -24.71823,-1.1608 1.72016,-6.69244 7.15167,-27.15711 13.14436,-39.02339 z"
       id="path3943"
       inkscape:connector-curvature="0"
       sodipodi:nodetypes="zsscccccszcccc" />
    <path
       style="fill:#00b0f0;fill-opacity:1;stroke:#88aa00;stroke-width:0;stroke-linecap:butt;stroke-linejoin:round;stroke-miterlimit:4"
       d="m 654.65701,811.21189 c -30.90656,-0.19314 -54.43974,22.9569 -53.9431,53.87481 0.56489,35.16609 24.95715,54.66007 54.31866,54.66007 33.6104,0 52.5964,-23.74114 52.78229,-54.66007 0.1859,-30.91954 -23.79692,-53.69133 -53.15785,-53.87481 z m -0.27313,34.27776 c 9.65308,0 17.4803,9.03109 17.4803,20.17745 0,11.14636 -7.82722,20.17745 -17.4803,20.17745 -9.65306,0 -17.48029,-9.03109 -17.48029,-20.17745 0,-11.14636 7.82723,-20.17745 17.48029,-20.17745 z"
       id="path3936"
       inkscape:connector-curvature="0" />
    <path
       style="fill:#000000;fill-opacity:1;stroke-width:5;stroke-miterlimit:4"
       d="m 322.66797,678.91473 c -19.3841,0 -36.41849,9.99658 -46.32961,25.09379 -3.68945,-0.30645 -7.4298,-0.44384 -11.19831,-0.44384 -53.76303,0 -100.09555,31.80292 -121.23541,77.63709 -0.002,0.004 -0.0321,-0.004 -0.0341,0 -1.86387,-0.18965 -3.75363,-0.27313 -5.66744,-0.27313 -30.621,0 -55.445318,24.86851 -55.445318,55.54774 0,30.67924 24.824318,55.54773 55.445318,55.54773 1.72746,0 3.43404,-0.11824 5.12118,-0.27313 20.87197,46.4976 67.57063,78.86618 121.81581,78.86618 3.65314,0 7.27789,-0.1557 10.8569,-0.44384 9.89825,15.17066 26.99183,25.23035 46.43204,25.23035 30.62099,0 55.44531,-24.8685 55.44531,-55.54774 0,-8.44321 -1.89409,-16.45975 -5.25775,-23.62571 16.31859,-22.14844 25.98146,-49.51256 25.98146,-79.1393 0,-29.50469 -9.58006,-56.76616 -25.77661,-78.86618 3.40128,-7.19845 5.29189,-15.26899 5.29189,-23.76227 0,-30.67923 -24.82432,-55.54774 -55.44532,-55.54774 z m -57.66449,43.83731 c 1.1502,0 2.30619,5.9e-4 3.44826,0.0341 -0.80798,3.77403 -1.22908,7.66045 -1.22908,11.67629 0,30.67924 24.8243,55.58188 55.44531,55.58188 14.88815,0 28.41447,-5.89826 38.37471,-15.46597 11.7923,17.97213 18.6411,39.4645 18.6411,62.54669 0,23.17036 -6.90249,44.7377 -18.77766,62.75152 -9.97261,-9.64251 -23.52335,-15.56838 -38.47714,-15.56838 -30.62101,0 -55.44531,24.8685 -55.44531,55.54773 0,3.99277 0.43011,7.85404 1.22908,11.60801 -1.06275,0.0291 -2.1395,0.0341 -3.20927,0.0341 -45.48255,0 -84.78222,-26.43419 -103.31127,-64.73172 18.87208,-8.86157 31.95616,-28.02792 31.95616,-50.28999 0,-22.0507 -12.82677,-41.11384 -31.40991,-50.08514 18.7439,-37.70509 57.71734,-63.6392 102.76502,-63.6392 z"
       id="path3882"
       inkscape:connector-curvature="0"
       inkscape:export-filename="/media/dasaule/DATA/@Real Doc/Travail/CoAct/Logo/symbol.png"
       inkscape:export-xdpi="64"
       inkscape:export-ydpi="64" />
    <path
       style="fill:#00b0f0;fill-opacity:1;stroke-width:5;stroke-miterlimit:4"
       d="m 322.63383,645.25151 c -35.56734,0 -66.92023,22.703 -80.77808,53.08957 6.05367,-0.81568 12.70333,-1.67043 18.9825,-1.70706 1.2303,-0.008 2.72257,-0.12674 3.96038,-0.10248 1.82211,0.0351 3.48623,0.17163 5.29189,0.27313 11.67247,-16.34818 30.90959,-27.07398 52.50917,-27.07398 35.54619,0 64.35616,27.82253 64.35616,63.43436 0,8.77335 -1.74923,17.12727 -4.91633,24.75237 5.34025,7.58257 9.97431,15.68195 13.79304,24.20611 9.34483,-13.97901 14.78315,-30.77767 14.78315,-48.85606 0,-48.60844 -39.39589,-88.01602 -87.98188,-88.01602 z m -64.32202,84.84088 c -8.15125,0.51452 -16.07043,1.96028 -23.62572,4.19937 0.54533,48.13916 39.70159,86.99178 87.94774,86.99178 16.75565,0 32.41847,-4.66822 45.74921,-12.80295 -2.17276,-7.87014 -5.23882,-15.36447 -9.04742,-22.39663 -10.41939,7.27689 -23.07206,11.57387 -36.73593,11.57387 -35.54619,0 -64.35617,-28.88091 -64.35617,-64.49273 0,-1.03259 0.0204,-2.05203 0.0683,-3.07271 z m -120.41602,19.01665 c -48.585998,0 -87.932511,39.3921 -87.932511,88.00054 0,48.60844 41.582753,88.11258 90.168761,88.11258 5.01737,0 11.53627,-0.76325 16.32437,-1.57049 -5.53864,-6.98292 -12.03265,-14.14282 -16.22194,-22.05522 -0.0458,10e-5 -0.0908,0 -0.13657,0 -35.5462,0 -64.356178,-28.88091 -64.356178,-64.49273 0,-34.96938 29.577458,-63.45642 64.236678,-64.47139 4.01529,-8.03028 9.24253,-15.07976 14.68072,-22.1235 -4.01969,-0.56268 -12.58879,-1.39979 -16.76333,-1.39979 z m 48.95848,14.85143 c -5.36646,5.75373 -10.0928,12.08443 -14.10032,18.91422 17.71772,11.47919 29.46386,31.43045 29.46386,54.14795 0,22.76145 -11.79107,42.73768 -29.56628,54.21622 4.01748,6.87403 8.77716,13.26261 14.1686,19.05079 23.55303,-15.79381 39.05753,-42.66926 39.05753,-73.16459 0,-30.48504 -15.48372,-57.36864 -39.02339,-73.16459 z m 136.15511,86.88935 c -48.58599,0 -87.94773,39.40758 -87.94773,88.01602 0,0.41951 0.0283,0.84511 0.0341,1.26322 7.59861,2.21972 15.56702,3.62098 23.76228,4.09695 -0.15126,-1.80383 -0.23899,-3.61965 -0.23899,-5.46259 0,-35.61183 28.80998,-64.45859 64.35617,-64.45859 13.94268,0 26.8468,4.43981 37.38461,11.98356 3.65515,-7.08597 6.52043,-14.63669 8.5353,-22.53319 -13.36209,-8.18932 -29.06935,-12.90538 -45.88577,-12.90538 z m 72.26521,39.03884 c -3.72496,9.14465 -7.17014,16.89752 -12.66992,24.9371 2.06489,6.31815 4.72674,16.92657 4.72674,23.93766 0,35.61181 -28.80998,64.49268 -64.35617,64.49268 -20.10789,0 -39.25187,-10.63348 -51.05288,-25.1076 -2.74858,0.10248 -4.81873,-0.18843 -7.60655,-0.24211 -7.0379,-0.13553 -15.12988,-1.46779 -21.8963,-2.56752 11.88712,30.33523 45.80281,52.37073 80.45192,52.37073 48.58599,0 88.11983,-40.23532 88.11983,-88.84376 0,-16.86924 -6.95307,-35.85505 -15.71667,-48.97718 z"
       id="path3772"
       inkscape:connector-curvature="0"
       sodipodi:nodetypes="ccsscssccsscssccsscscsccssccscssccscscccssccscccscscsscsc"
       inkscape:export-filename="/media/dasaule/DATA/@Real Doc/Travail/CoAct/Logo/symbol.png"
       inkscape:export-xdpi="64"
       inkscape:export-ydpi="64" />
    <flowRoot
       xml:space="preserve"
       id="flowRoot3920"
       style="font-size:40px;font-style:normal;font-weight:normal;line-height:125%;letter-spacing:0px;word-spacing:0px;fill:#000000;fill-opacity:1;stroke:none;font-family:Sans"><flowRegion
         id="flowRegion3922"><rect
           id="rect3924"
           width="494.5"
           height="60.5"
           x="328"
           y="404.86218" /></flowRegion><flowPara
         id="flowPara3926" /></flowRoot>    <text
       xml:space="preserve"
       style="font-size:43.700737px;font-style:normal;font-weight:normal;line-height:125%;letter-spacing:0px;word-spacing:0px;fill:#000000;fill-opacity:1;stroke:none;font-family:Sans"
       x="474.0159"
       y="959.23413"
       id="text3928"
       sodipodi:linespacing="125%"><tspan
         sodipodi:role="line"
         id="tspan3930"
         x="474.0159"
         y="959.23413"
         style="font-size:37.14562607px;font-style:normal;font-variant:normal;font-weight:normal;font-stretch:normal;letter-spacing:1.5513761px;fill:#000000;fill-opacity:1;font-family:Ubuntu;-inkscape-font-specification:Ubuntu">The Collabor'action Factory</tspan></text>
    <path
       style="font-size:medium;font-style:normal;font-variant:normal;font-weight:normal;font-stretch:normal;text-indent:0;text-align:start;text-decoration:none;line-height:normal;letter-spacing:normal;word-spacing:normal;text-transform:none;direction:ltr;block-progression:tb;writing-mode:lr-tb;text-anchor:start;baseline-shift:baseline;color:#000000;fill:#000000;fill-opacity:1;fill-rule:nonzero;stroke:none;stroke-width:4;marker:none;visibility:visible;display:inline;overflow:visible;enable-background:accumulate;font-family:Sans;-inkscape-font-specification:Sans"
       d="m 477.63654,922.75855 c -0.85702,0 -1.90776,0.9628 -1.9132,2.16023 -0.005,1.19744 1.00186,2.12534 1.9132,2.20984 l 505.28981,0.0341 c 1.6778,0.0845 2.4849,-1.11438 2.4752,-2.22341 -0.01,-1.0921 -1.0388,-2.29151 -2.4752,-2.14667 z"
       id="path3932"
       inkscape:connector-curvature="0"
       sodipodi:nodetypes="czccscc" />
    <path
       style="fill:#00b0f0;fill-opacity:1;stroke:#000000;stroke-width:0;stroke-linecap:butt;stroke-linejoin:miter;stroke-miterlimit:4;stroke-opacity:1;stroke-dasharray:none"
       d="m 599.31557,792.61687 c -14.24308,-16.53806 -30.44029,-25.43145 -50.33628,-25.40085 -35.72224,-5.35613 -76.91362,22.56709 -78.22039,78.3901 -1.05914,45.24503 36.88447,78.06754 72.49472,76.05594 28.76541,-2.31532 41.75437,-9.83398 56.38277,-28.96007 l -20.66511,-28.39038 c -12.95742,11.30463 -21.28806,17.44223 -37.37099,16.31964 -19.45575,-3.68176 -26.93437,-18.31036 -27.90756,-36.30878 -0.32328,-21.90761 12.66121,-37.41414 30.17685,-37.17786 21.65373,-0.084 25.83796,10.22034 35.8611,17.43658 1.52383,-1.9167 16.88244,-27.53698 19.58489,-31.96432 z"
       id="path3934"
       inkscape:connector-curvature="0"
       sodipodi:nodetypes="ccscccccccc" />
    <path
       style="fill:#000000;fill-opacity:1;stroke:#000000;stroke-width:0;stroke-linecap:butt;stroke-linejoin:miter;stroke-miterlimit:4;stroke-opacity:1;stroke-dasharray:none"
       d="m 906.74637,819.69238 c -9.48686,-6.5868 -11.14691,-6.93134 -22.38503,-8.55184 -31.33959,-4.95233 -60.90578,13.45207 -62.12879,54.20389 -0.93714,31.22665 22.50239,54.36752 53.27088,53.26874 22.38051,0.14007 28.10756,-6.77794 29.66102,-8.88409 1.55345,-2.10613 -4.51734,-30.35351 -7.88506,-30.21817 -1.62953,0.13533 -5.47903,4.12077 -18.15409,5.37381 -10.21519,-1.47904 -18.29643,-7.32663 -18.71087,-20.52287 -0.41443,-13.19623 11.59764,-19.57862 19.14739,-19.57769 7.54975,9.4e-4 11.86525,2.51581 18.02636,3.24778 1.68378,-1.12983 7.02838,-25.28367 9.15819,-28.33956 z"
       id="path3934-3"
       inkscape:connector-curvature="0"
       sodipodi:nodetypes="ccsczcczzcc" />
    <path
       style="fill:#000000;fill-opacity:1;stroke:#ec7a00;stroke-width:0;stroke-linecap:butt;stroke-linejoin:miter;stroke-miterlimit:4;stroke-opacity:1;stroke-dasharray:none"
       d="m 921.39397,781.16836 c 3.95844,-0.31869 31.24097,4.1182 35.72939,4.63518 1.22818,6.41613 -1.29617,16.7529 -1.35193,31.28734 8.07261,0.41377 19.61552,-0.2935 27.42472,0 0.1534,9.057 -0.8246,24.53566 -0.7725,33.02554 -7.914,0.0311 -16.83639,-0.0322 -26.26596,-0.19313 0.7233,10.36717 -1.26296,25.39264 3.47637,32.63927 7.68447,6.65907 20.19209,-0.35083 26.07279,0.77253 -0.1467,7.06688 0.1186,18.95908 -1.7382,25.30026 -8.9259,4.7479 -21.56855,9.22752 -34.57057,9.27034 -14.65239,0.10291 -24.6156,-5.40345 -29.7423,-17.18874 0.18709,-14.21454 1.44345,-32.38548 1.1588,-49.63487 -2.86998,-3.45195 -9.60137,-0.28508 -11.97417,-3.09011 0.10772,-7.95122 -0.31633,-16.19899 0.77252,-26.84531 2.33691,-2.58657 8.05066,0.42395 10.42911,-2.12446 -0.055,-10.42562 -1.11179,-36.55282 1.35193,-37.85384 z"
       id="path3974"
       inkscape:connector-curvature="0"
       sodipodi:nodetypes="cccccccccccccccc" />
  </g>
</svg>
